<svg width="62" height="35" viewBox="0 0 62 35" fill="none" xmlns="http://www.w3.org/2000/svg">
<g clip-path="url(#clip0_1_455)">
<g clip-path="url(#clip1_1_455)">
<g clip-path="url(#clip2_1_455)">
<path d="M9.73176 19.749L2.4044 20.9536C2.63978 22.6616 4.00684 23.729 5.77485 23.729C6.92981 23.729 7.58941 23.3255 8.39129 22.6616C8.79224 22.3296 9.45183 22.1636 9.94653 22.5665C10.3941 22.9226 10.418 23.6581 9.99374 24.1085C8.88599 25.271 7.28355 25.864 5.65716 25.864C2.52275 25.864 0.000732422 23.5631 0.000732422 20.0521C0.000732422 16.5412 2.46358 13.6601 5.59067 13.4413C8.79623 13.2171 10.7458 15.2415 10.8396 18.634C10.8396 19.2745 10.3256 19.7088 9.73176 19.749ZM8.45911 17.9701C8.22373 16.2381 7.22437 15.346 5.59067 15.5768C3.34392 15.8947 2.64909 17.3316 2.41304 19.0402L8.45911 17.9701Z" fill="#BA247E"/>
<path d="M13.8111 20.7877C14.4946 20.5976 15.1309 20.8352 15.4374 21.5941C15.9561 22.6616 16.7806 23.5631 18.5246 23.5631C20.4336 23.5631 21.4237 22.519 21.5886 21.3331C21.683 19.8146 20.528 19.0322 19.0193 18.6762L16.9687 18.1542C13.4806 17.2052 12.9387 15.2128 12.9387 13.7652C12.9387 10.9657 15.4368 9.0918 18.2886 9.0918C20.7634 9.0918 22.3898 10.0883 23.1671 12.1282C23.4025 12.7453 23.1199 13.4801 22.5075 13.6702C21.7767 13.9071 21.282 13.5751 20.9523 12.9347C20.2215 11.6771 19.1377 11.4636 18.2421 11.4636C16.7573 11.4636 15.4374 12.3651 15.4374 13.717C15.4374 14.3575 15.6728 15.354 17.6057 15.8519L19.6796 16.3974C22.9556 17.2748 24.3227 19.1253 24.0634 21.4737C23.828 24.0356 21.6358 25.8626 18.5246 25.8626C15.8145 25.8626 13.7639 24.3441 13.0564 22.3752C12.8443 21.7347 13.1741 20.9517 13.8104 20.7857L13.8111 20.7877Z" fill="#BA247E"/>
<path d="M29.6021 24.4646C29.6021 25.1525 29.0363 25.7455 28.3055 25.7455C27.6459 25.7455 27.1034 25.1525 27.1034 24.4646V10.4443C27.1034 9.75635 27.6453 9.16339 28.3055 9.16339C29.0363 9.16339 29.6021 9.75635 29.6021 10.4443V24.4646Z" fill="#BA247E"/>
<path d="M41.2454 22.9226L36.8849 13.9553L35.6356 24.583C35.5411 25.271 35.0697 25.7455 34.2213 25.7455C33.4673 25.7455 33.0903 25.0341 33.1607 24.3461L34.8576 10.35C34.9281 9.7095 35.3995 9.16405 36.0358 9.16405H36.2007C36.7194 9.16405 37.2141 9.37754 37.4973 9.9705L42.7063 20.9302L47.9152 9.9705C48.1978 9.37754 48.6932 9.16405 49.2118 9.16405H49.3767C50.013 9.16405 50.4844 9.7095 50.5549 10.35L52.2518 24.3461C52.3223 25.0341 51.9453 25.7455 51.1912 25.7455C50.3428 25.7455 49.8714 25.271 49.777 24.583L48.5276 13.9553L44.1671 22.9226C43.9317 23.4205 43.4835 23.9666 42.7056 23.9666C41.9276 23.9666 41.4802 23.4212 41.2441 22.9226H41.2454Z" fill="#BA247E"/>
<path d="M57.5744 0H37.4507C35.0105 0 33.025 1.99839 33.025 4.45456V8.46473C33.1321 8.33088 33.4645 7.39392 34.4213 7.0593V4.45456C34.4213 2.77339 35.7804 1.40543 37.4507 1.40543H57.5744C59.2446 1.40543 60.6037 2.77339 60.6037 4.45456V30.5454C60.6037 32.2266 59.2446 33.5946 57.5744 33.5946H37.4507C35.7804 33.5946 34.4213 32.2266 34.4213 30.5454V28.2178C33.9965 28.543 33.1859 28.3135 33.025 28.1696V30.5454C33.025 33.0016 35.0105 35 37.4507 35H57.5744C60.0146 35 62 33.0016 62 30.5454V4.45456C62 1.99839 60.0146 0 57.5744 0Z" fill="#BA247E"/>
</g>
</g>
</g>
<defs>
<clipPath id="clip0_1_455">
<rect width="62" height="35" fill="white"/>
</clipPath>
<clipPath id="clip1_1_455">
<rect width="62" height="35" fill="white"/>
</clipPath>
<clipPath id="clip2_1_455">
<rect width="62" height="35" fill="white"/>
</clipPath>
</defs>
</svg>
